<?xml version="1.0" encoding="UTF-8" standalone="no"?>
<!-- Created with Inkscape (http://www.inkscape.org/) -->

<svg
   xmlns:dc="http://purl.org/dc/elements/1.1/"
   xmlns:cc="http://creativecommons.org/ns#"
   xmlns:rdf="http://www.w3.org/1999/02/22-rdf-syntax-ns#"
   xmlns:svg="http://www.w3.org/2000/svg"
   xmlns="http://www.w3.org/2000/svg"
   xmlns:sodipodi="http://sodipodi.sourceforge.net/DTD/sodipodi-0.dtd"
   xmlns:inkscape="http://www.inkscape.org/namespaces/inkscape"
   width="390.59991"
   height="389.47079"
   viewBox="0 0 103.34622 103.04749"
   version="1.1"
   id="svg971"
   inkscape:version="0.92.2 2405546, 2018-03-11"
   sodipodi:docname="logocp.svg">
  <defs
     id="defs965" />
  <sodipodi:namedview
     id="base"
     pagecolor="#ffffff"
     bordercolor="#666666"
     borderopacity="1.0"
     inkscape:pageopacity="0.0"
     inkscape:pageshadow="2"
     inkscape:zoom="0.35"
     inkscape:cx="75.299951"
     inkscape:cy="175.99871"
     inkscape:document-units="px"
     inkscape:current-layer="layer1"
     showgrid="false"
     inkscape:window-width="1366"
     inkscape:window-height="744"
     inkscape:window-x="0"
     inkscape:window-y="0"
     inkscape:window-maximized="0"
     units="px"
     showborder="false"
     inkscape:pagecheckerboard="true"
     fit-margin-top="0"
     fit-margin-left="0"
     fit-margin-right="0"
     fit-margin-bottom="0" />
  <metadata
     id="metadata968">
    <rdf:RDF>
      <cc:Work
         rdf:about="">
        <dc:format>image/svg+xml</dc:format>
        <dc:type
           rdf:resource="http://purl.org/dc/dcmitype/StillImage" />
        <dc:title></dc:title>
      </cc:Work>
    </rdf:RDF>
  </metadata>
  <g
     inkscape:label="Layer 1"
     inkscape:groupmode="layer"
     id="layer1"
     transform="translate(176.78324,-92.352171)">
    <g
       aria-label="φ"
       transform="matrix(5.0544228,0,0,3.5159788,-808.75649,-222.45532)"
       style="font-style:normal;font-variant:normal;font-weight:normal;font-stretch:normal;font-size:38.2614975px;line-height:1.25;font-family:'Bitstream Vera Sans Mono';-inkscape-font-specification:'Bitstream Vera Sans Mono';letter-spacing:0px;word-spacing:0px;fill:#ffffff;fill-opacity:1;stroke:#666666;stroke-width:0.25105193;stroke-miterlimit:4;stroke-dasharray:none;stroke-opacity:1"
       id="text931"
       inkscape:export-xdpi="96"
       inkscape:export-ydpi="96">
      <path
         d="m 138.18085,92.61977 c -0.80957,0 -1.21435,0.902981 -1.21435,2.708944 0.10365,5.204256 -1.5222,16.615926 3.32546,10.873136 0.95903,-1.15831 1.43854,-3.12618 1.43854,-5.90363 0,-2.752533 -0.47951,-4.745317 -1.43854,-5.978354 -0.8843,-1.133397 -1.588,-1.700096 -2.11111,-1.700096 z m 0,-2.933132 c 1.71878,0 3.31924,0.822024 4.80137,2.466073 1.58177,1.756143 2.37266,4.471312 2.37266,8.145509 0,3.51229 -0.79089,6.20255 -2.37266,8.07079 -5.01486,3.88574 -6.01572,1.32571 -6.01572,10.35003 h -3.41887 c 1.29483,-9.50932 -2.62724,-6.2733 -6.03441,-10.35003 -1.56932,-1.93051 -2.35398,-4.61455 -2.35398,-8.0521 0,-3.736476 0.78466,-6.426738 2.35398,-8.070787 1.29531,-1.357586 2.902,-2.210748 4.82005,-2.559485 v 3.045226 c -0.80957,0.323828 -1.5195,0.952801 -2.12979,1.88692 -0.94657,1.432315 -1.41986,3.331691 -1.41986,5.698126 0,2.69026 0.47329,4.66436 1.41986,5.92231 5.01534,6.0453 3.34415,-6.01425 3.34415,-10.910506 0,-3.761384 1.54441,-5.642076 4.63322,-5.642076 z"
         style="fill:#ffffff;fill-opacity:1;stroke:#666666;stroke-width:0.25105193;stroke-miterlimit:4;stroke-dasharray:none;stroke-opacity:1"
         id="path933"
         inkscape:connector-curvature="0"
         sodipodi:nodetypes="sccscsscsccccsccccsccs" />
    </g>
    <g
       inkscape:export-ydpi="96"
       inkscape:export-xdpi="96"
       id="g11"
       style="font-style:normal;font-variant:normal;font-weight:normal;font-stretch:normal;font-size:38.2614975px;line-height:1.25;font-family:'Bitstream Vera Sans Mono';-inkscape-font-specification:'Bitstream Vera Sans Mono';letter-spacing:0px;word-spacing:0px;fill:#ffffff;fill-opacity:1;stroke:#666666;stroke-width:0.25105193;stroke-miterlimit:4;stroke-dasharray:none;stroke-opacity:1"
       transform="matrix(5.0544228,0,0,3.5159788,-808.75649,-222.45532)"
       aria-label="φ"
       inkscape:export-filename="/home/chinux/Public/portfolio/public/logocp.png">
      <path
         sodipodi:nodetypes="sccscsscsccccsccccsccs"
         inkscape:connector-curvature="0"
         id="path9"
         style="fill:#ffffff;fill-opacity:1;stroke:#666666;stroke-width:0.25105193;stroke-miterlimit:4;stroke-dasharray:none;stroke-opacity:1"
         d="m 138.18085,92.61977 c -0.80957,0 -1.21435,0.902981 -1.21435,2.708944 0.10365,5.204256 -1.5222,16.615926 3.32546,10.873136 0.95903,-1.15831 1.43854,-3.12618 1.43854,-5.90363 0,-2.752533 -0.47951,-4.745317 -1.43854,-5.978354 -0.8843,-1.133397 -1.588,-1.700096 -2.11111,-1.700096 z m 0,-2.933132 c 1.71878,0 3.31924,0.822024 4.80137,2.466073 1.58177,1.756143 2.37266,4.471312 2.37266,8.145509 0,3.51229 -0.79089,6.20255 -2.37266,8.07079 -5.01486,3.88574 -6.01572,1.32571 -6.01572,10.35003 h -3.41887 c 1.29483,-9.50932 -2.62724,-6.2733 -6.03441,-10.35003 -1.56932,-1.93051 -2.35398,-4.61455 -2.35398,-8.0521 0,-3.736476 0.78466,-6.426738 2.35398,-8.070787 1.29531,-1.357586 2.902,-2.210748 4.82005,-2.559485 v 3.045226 c -0.80957,0.323828 -1.5195,0.952801 -2.12979,1.88692 -0.94657,1.432315 -1.41986,3.331691 -1.41986,5.698126 0,2.69026 0.47329,4.66436 1.41986,5.92231 5.01534,6.0453 3.34415,-6.01425 3.34415,-10.910506 0,-3.761384 1.54441,-5.642076 4.63322,-5.642076 z" />
    </g>
  </g>
</svg>
