<?xml version="1.0" encoding="UTF-8" standalone="no"?>
<!-- Created with Inkscape (http://www.inkscape.org/) -->

<svg
   xmlns:dc="http://purl.org/dc/elements/1.1/"
   xmlns:cc="http://creativecommons.org/ns#"
   xmlns:rdf="http://www.w3.org/1999/02/22-rdf-syntax-ns#"
   xmlns:svg="http://www.w3.org/2000/svg"
   xmlns="http://www.w3.org/2000/svg"
   xmlns:sodipodi="http://sodipodi.sourceforge.net/DTD/sodipodi-0.dtd"
   xmlns:inkscape="http://www.inkscape.org/namespaces/inkscape"
   width="464.25146"
   height="239.50702"
   id="svg2"
   version="1.1"
   inkscape:version="0.48.5 r10040"
   sodipodi:docname="Documento nuevo 1">
  <defs
     id="defs4" />
  <sodipodi:namedview
     id="base"
     pagecolor="#ffffff"
     bordercolor="#666666"
     borderopacity="1.0"
     inkscape:pageopacity="0.0"
     inkscape:pageshadow="2"
     inkscape:zoom="1.4"
     inkscape:cx="234.99712"
     inkscape:cy="108.53664"
     inkscape:document-units="px"
     inkscape:current-layer="layer1"
     showgrid="false"
     fit-margin-top="0"
     fit-margin-left="0"
     fit-margin-right="0"
     fit-margin-bottom="0"
     inkscape:window-width="1020"
     inkscape:window-height="561"
     inkscape:window-x="0"
     inkscape:window-y="18"
     inkscape:window-maximized="0" />
  <metadata
     id="metadata7">
    <rdf:RDF>
      <cc:Work
         rdf:about="">
        <dc:format>image/svg+xml</dc:format>
        <dc:type
           rdf:resource="http://purl.org/dc/dcmitype/StillImage" />
        <dc:title></dc:title>
      </cc:Work>
    </rdf:RDF>
  </metadata>
  <g
     inkscape:label="Capa 1"
     inkscape:groupmode="layer"
     id="layer1"
     transform="translate(-137.42134,-386.18878)">
    <g
       id="g3777">
      <path
         inkscape:connector-curvature="0"
         d="m 446.7559,499.97323 c 6.81968,3.17743 13.07009,7.41718 19.71629,10.94602 14.03735,6.9929 29.41885,10.3098 44.55993,13.95204 11.92657,2.87858 24.0863,4.43717 36.32085,5.09024 6.59047,0.50773 13.23471,-0.21681 19.49204,-2.36112 12.41791,-7.32553 31.09585,-16.04666 -27.55645,15.56093 -1.13806,0.61329 1.99574,-1.64748 2.92956,-2.54151 2.48402,-2.3782 3.62801,-3.89337 5.84814,-6.54055 6.2889,-6.89266 10.55854,-14.64204 13.05719,-23.57886 1.86817,-9.76187 2.66394,-19.7973 2.06489,-29.7245 -0.29643,-8.58572 -3.1167,-14.59982 -8.63844,-20.96903 -4.42163,-5.60474 -9.42634,-10.52043 -15.24177,-14.62479 -7.14449,-4.0403 -15.05923,-5.80393 -23.1078,-6.89129 -7.74886,-0.84689 -15.55362,-0.81656 -23.33748,-0.86274 -8.43191,-0.30759 -16.57767,2.00538 -24.73705,3.77245 -8.68251,1.88927 -16.78581,5.17591 -24.72638,9.08073 -18.00089,10.23369 18.036,-10.4549 27.12771,-15.55235 1.34253,-0.75272 -2.5702,1.69416 -3.86071,2.53294 -3.75834,2.44274 -7.5948,4.75007 -11.39967,7.11873 -6.21464,4.24367 -12.43543,8.533 -18.20209,13.37753 -4.92109,3.7022 -9.1647,8.15839 -13.6675,12.33284 -4.62742,4.40806 -8.5387,9.48162 -12.07483,14.78564 -3.39665,5.19273 -6.02436,10.82582 -9.16609,16.16535 -2.41047,4.58935 -5.98845,8.32338 -9.42883,12.1298 -3.55446,3.72379 -7.13901,7.41667 -10.72209,11.11578 -3.88163,4.85459 -8.30593,9.22062 -12.37123,13.91593 -5.52028,6.19048 -9.60482,13.44679 -14.47405,20.13314 -4.7397,5.8035 -9.43554,11.60914 -13.73682,17.74832 -3.23408,4.41971 -6.20408,9.02081 -9.27268,13.55471 -3.72321,5.24556 -7.33206,10.54656 -11.38447,15.54733 -0.71658,0.90178 -1.43316,1.80356 -2.14974,2.70534 0,0 -38.46765,16.55352 -38.46765,16.55352 l 0,0 c 0.69798,-0.96409 1.39596,-1.92817 2.09395,-2.89226 4.11477,-4.79377 7.758,-9.8734 11.29303,-15.09055 3.20139,-4.55608 6.2219,-9.17059 9.34291,-13.7851 4.76516,-5.84802 8.65073,-12.42493 13.9835,-17.84426 5.10393,-6.56426 9.19416,-13.78315 14.28664,-20.31013 3.93242,-4.76899 8.29909,-9.11947 12.04,-14.00914 3.46571,-3.82533 7.36452,-7.14375 10.48076,-11.28899 3.85872,-3.09876 7.13803,-7.09125 10.03517,-11.07314 3.10627,-5.4296 6.18487,-10.85802 9.24278,-16.32558 3.26688,-5.70458 7.29404,-10.85053 11.60131,-15.80798 4.5266,-4.22667 8.81646,-8.65142 13.57736,-12.60148 6.04148,-4.74264 11.96419,-9.6067 18.33395,-13.94389 3.77137,-2.46138 7.75494,-4.57165 11.52871,-7.01097 15.50752,-10.02391 31.27378,-19.80722 47.8582,-28.02213 8.20003,-3.73777 16.67527,-6.67056 25.52252,-8.48082 8.32316,-1.76136 16.71694,-3.45024 25.28028,-3.04998 7.892,0.0418 15.80575,0.19614 23.61995,1.42569 8.52129,1.5022 17.00178,3.76188 24.42547,8.36871 5.9764,4.38512 10.92989,9.81458 15.5561,15.5963 6.00194,7.05121 9.46771,13.87563 9.94376,23.31106 0.73723,10.32353 -0.43791,20.72476 -1.7686,30.95996 -1.86305,9.50955 -5.45772,17.95226 -12.09247,25.18876 -2.31255,2.94947 -4.9739,7.76428 -8.21292,9.80971 -11.6899,7.38214 -28.6376,20.4202 -44.61152,25.61127 -6.6301,1.32623 -13.26643,1.92252 -20.01363,0.99348 -12.08779,-1.1755 -24.05319,-3.2391 -35.82323,-6.26416 -15.52795,-3.83594 -31.2222,-7.50492 -45.78626,-14.30331 -6.8508,-3.45758 -13.3964,-7.55021 -20.57704,-10.31108 0,0 35.44654,-23.32256 35.44654,-23.32256 z"
         id="path2989-3"
         style="fill:#444444;fill-opacity:1;stroke:#01579b;stroke-width:2.5;stroke-miterlimit:4;stroke-opacity:1;stroke-dasharray:none" />
      <path
         inkscape:connector-curvature="0"
         d="m 292.33825,511.91135 c -6.81968,-3.17743 -13.07009,-7.41718 -19.71629,-10.94602 -14.03735,-6.9929 -29.41885,-10.3098 -44.55993,-13.95204 -11.92657,-2.87858 -24.0863,-4.43717 -36.32085,-5.09024 -6.59047,-0.50773 -13.23471,0.21681 -19.49204,2.36112 -12.41791,7.32553 -31.09585,16.04666 27.55645,-15.56093 1.13806,-0.61329 -1.99574,1.64748 -2.92956,2.54151 -2.48402,2.3782 -3.62801,3.89337 -5.84814,6.54055 -6.2889,6.89266 -10.55854,14.64204 -13.05719,23.57886 -1.86817,9.76187 -2.66394,19.7973 -2.06489,29.7245 0.29643,8.58572 3.1167,14.59982 8.63844,20.96903 4.42163,5.60474 9.42634,10.52043 15.24177,14.62479 7.14449,4.0403 15.05923,5.80393 23.1078,6.89129 7.74886,0.84689 15.55362,0.81656 23.33748,0.86274 8.43191,0.30759 16.57767,-2.00538 24.73705,-3.77245 8.68251,-1.88927 16.78581,-5.17591 24.72638,-9.08073 18.00089,-10.23369 -18.036,10.4549 -27.12771,15.55235 -1.34253,0.75272 2.5702,-1.69416 3.86071,-2.53294 3.75834,-2.44274 7.5948,-4.75007 11.39967,-7.11873 6.21464,-4.24367 12.43543,-8.533 18.20209,-13.37753 4.92109,-3.7022 9.1647,-8.15839 13.6675,-12.33284 4.62742,-4.40806 8.5387,-9.48162 12.07483,-14.78564 3.39665,-5.19273 6.02436,-10.82582 9.16609,-16.16535 2.41047,-4.58935 5.98845,-8.32338 9.42883,-12.1298 3.55446,-3.72379 7.13901,-7.41667 10.72209,-11.11578 3.88163,-4.85459 8.30593,-9.22062 12.37123,-13.91593 5.52028,-6.19048 9.60482,-13.44679 14.47405,-20.13314 4.7397,-5.8035 9.43554,-11.60914 13.73682,-17.74832 3.23408,-4.41971 6.20408,-9.02081 9.27268,-13.55471 3.72321,-5.24556 7.33206,-10.54656 11.38447,-15.54733 0.71658,-0.90178 1.43316,-1.80356 2.14974,-2.70534 0,0 38.46764,-16.55352 38.46764,-16.55352 l 0,0 c -0.69798,0.96409 -1.39596,1.92817 -2.09395,2.89226 -4.11477,4.79377 -7.758,9.8734 -11.29303,15.09055 -3.20139,4.55608 -6.2219,9.17059 -9.34291,13.7851 -4.76515,5.84802 -8.65072,12.42493 -13.98349,17.84426 -5.10393,6.56426 -9.19416,13.78315 -14.28664,20.31013 -3.93242,4.76899 -8.29909,9.11947 -12.04,14.00914 -3.46571,3.82533 -7.36452,7.14375 -10.48076,11.28899 -3.85872,3.09876 -7.13803,7.09125 -10.03517,11.07314 -3.10627,5.4296 -6.18487,10.85802 -9.24278,16.32558 -3.26688,5.70458 -7.29404,10.85053 -11.60131,15.80798 -4.5266,4.22667 -8.81646,8.65142 -13.57736,12.60148 -6.04148,4.74264 -11.96419,9.6067 -18.33395,13.94389 -3.77137,2.46138 -7.75494,4.57165 -11.52871,7.01097 -15.50752,10.02391 -31.27378,19.80722 -47.8582,28.02213 -8.20003,3.73777 -16.67527,6.67056 -25.52252,8.48082 -8.32316,1.76136 -16.71694,3.45024 -25.28028,3.04998 -7.892,-0.0418 -15.80575,-0.19614 -23.61995,-1.42569 -8.52129,-1.5022 -17.00178,-3.76188 -24.42547,-8.36871 -5.9764,-4.38512 -10.92989,-9.81458 -15.5561,-15.5963 -6.00194,-7.05121 -9.46771,-13.87563 -9.94376,-23.31106 -0.73723,-10.32353 0.43791,-20.72476 1.7686,-30.95996 1.86305,-9.50955 5.45772,-17.95226 12.09247,-25.18876 2.31255,-2.94947 4.9739,-7.76428 8.21292,-9.80971 11.6899,-7.38214 28.6376,-20.4202 44.61152,-25.61127 6.6301,-1.32623 13.26643,-1.92252 20.01363,-0.99348 12.08779,1.1755 24.05319,3.2391 35.82323,6.26416 15.52795,3.83594 31.2222,7.50492 45.78626,14.30331 6.8508,3.45758 13.3964,7.55021 20.57704,10.31108 0,0 -35.44654,23.32256 -35.44654,23.32256 z"
         id="path2989"
         style="fill:#444444;fill-opacity:1;stroke:#1e7a05;stroke-width:2.5;stroke-miterlimit:4;stroke-opacity:1;stroke-dasharray:none" />
    </g>
  </g>
</svg>
